<?xml version="1.0" standalone="no"?>
<!DOCTYPE svg PUBLIC "-//W3C//DTD SVG 20010904//EN"
 "http://www.w3.org/TR/2001/REC-SVG-20010904/DTD/svg10.dtd">
<svg version="1.0" xmlns="http://www.w3.org/2000/svg"
 width="500.000000pt" height="500.000000pt" viewBox="0 0 500.000000 500.000000"
 preserveAspectRatio="xMidYMid meet">

<g transform="translate(0.000000,500.000000) scale(0.100000,-0.100000)"
fill="#000000" stroke="none">
<path d="M2284 4820 c-304 -61 -511 -238 -570 -486 -20 -84 -14 -267 11 -359
51 -189 192 -402 437 -662 239 -253 348 -478 351 -725 1 -104 2 -108 24 -108
43 0 534 331 621 420 115 116 233 331 276 503 9 38 -14 36 -71 -8 -91 -69
-202 -94 -346 -75 -313 39 -580 220 -727 493 -74 136 -96 277 -64 406 65 261
288 448 584 492 44 6 80 15 80 19 0 29 -116 79 -234 99 -90 16 -269 12 -372
-9z"/>
<path d="M2955 4669 c-94 -14 -232 -56 -320 -98 -154 -73 -267 -192 -306 -323
-38 -124 -12 -321 54 -419 12 -18 27 -34 32 -36 6 -1 26 25 45 59 73 129 284
318 410 368 35 14 86 24 142 27 75 5 98 2 171 -21 184 -57 318 -193 363 -367
25 -98 8 -337 -37 -519 -42 -170 -131 -337 -245 -460 -89 -96 -74 -111 90 -87
208 30 407 114 560 238 336 271 446 701 270 1052 -51 102 -88 153 -178 243
-176 177 -440 310 -680 343 -89 13 -284 12 -371 0z"/>
<path d="M2890 4128 c-60 -31 -88 -84 -71 -136 19 -62 24 -66 59 -48 74 38
213 8 295 -64 82 -73 95 -142 33 -182 -111 -70 -397 77 -461 237 -13 33 -30
61 -38 63 -34 7 -217 -241 -217 -294 0 -23 64 -82 153 -143 69 -47 242 -127
313 -145 191 -49 364 10 448 153 46 80 60 125 59 203 -1 49 -8 82 -26 121 -83
181 -391 313 -547 235z"/>
<path d="M1577 3753 c-62 -157 -74 -198 -93 -328 -25 -168 -10 -327 47 -501
61 -185 148 -323 300 -474 206 -204 250 -338 181 -548 -45 -134 -81 -287 -103
-436 -22 -152 -34 -448 -22 -556 l8 -75 36 -9 c20 -5 56 -6 81 -2 l44 7 0 232
c0 273 15 402 73 630 53 206 105 339 216 546 77 146 98 338 55 506 -25 99
-101 257 -168 350 -27 39 -113 136 -190 217 -158 167 -244 283 -317 426 -54
107 -71 132 -89 132 -7 0 -33 -53 -59 -117z"/>
<path d="M3225 2690 c-176 -38 -313 -97 -479 -208 -147 -98 -339 -302 -305
-323 25 -15 179 -20 278 -9 191 21 335 70 498 172 151 93 378 337 344 371 -21
21 -232 19 -336 -3z"/>
<path d="M1062 2237 c-18 -21 -35 -195 -28 -285 27 -333 206 -546 527 -626
140 -35 175 -39 193 -21 33 34 42 297 13 417 -62 254 -238 424 -512 493 -131
33 -180 38 -193 22z"/>
<path d="M1209 1074 c-22 -26 21 -189 80 -309 113 -226 294 -376 526 -435 384
-98 800 186 909 621 19 78 20 111 4 127 -15 15 -354 17 -363 2 -4 -6 -15 -42
-26 -82 -36 -129 -121 -225 -238 -269 -83 -31 -214 -25 -293 14 -103 51 -182
152 -208 267 -7 30 -17 61 -23 68 -7 9 -56 12 -182 12 -145 0 -175 -3 -186
-16z"/>
</g>
</svg>
